<?xml version="1.0" encoding="iso-8859-1"?>
<!-- Generator: Adobe Illustrator 19.0.0, SVG Export Plug-In . SVG Version: 6.00 Build 0)  -->
<svg version="1.1" id="Capa_1" xmlns="http://www.w3.org/2000/svg" xmlns:xlink="http://www.w3.org/1999/xlink" x="0px" y="0px"
	 viewBox="0 0 512 512" style="enable-background:new 0 0 512 512;" xml:space="preserve">
<path style="fill:#CFD8DC;" d="M447.339,198.933c-1.123-3.023-3.555-5.376-6.613-6.4c-28.843-9.664-76.8-93.291-100.395-143.723
	c-2.497-5.336-8.846-7.637-14.182-5.14c-0.821,0.384-1.59,0.871-2.287,1.45C303.823,58.468,280.052,65.081,256,64
	c-24.032,1.074-47.783-5.523-67.819-18.837c-4.514-3.785-11.242-3.194-15.027,1.321c-0.594,0.708-1.093,1.49-1.485,2.327
	c-23.467,50.453-71.552,134.08-100.395,143.723c-5.585,1.874-8.593,7.921-6.718,13.506c0.239,0.713,0.553,1.399,0.937,2.046
	c11.144,19.776,20.428,40.545,27.733,62.037c1.469,4.291,5.491,7.183,10.027,7.211h305.493c4.553,0.003,8.606-2.885,10.091-7.189
	c7.305-21.493,16.589-42.261,27.733-62.037C448.201,205.322,448.483,201.95,447.339,198.933z"/>
<path style="fill:#F44336;" d="M480,0H32c-5.891,0-10.667,4.776-10.667,10.667v320c0,5.891,4.776,10.667,10.667,10.667h85.333
	c5.891,0,10.667-4.776,10.667-10.667c-1.429-23.109-6.378-45.863-14.677-67.477c-6.615-19.248-14.629-37.986-23.979-56.064
	c38.229-24.896,81.067-106.987,96.384-138.304c21.67,11.307,45.834,16.985,70.272,16.512c24.436,0.479,48.6-5.191,70.272-16.491
	c15.36,31.317,58.155,113.387,96.384,138.304c-9.332,18.062-17.339,36.778-23.957,56c-8.306,21.628-13.262,44.397-14.699,67.52
	c0,5.891,4.776,10.667,10.667,10.667H480c5.891,0,10.667-4.776,10.667-10.667v-320C490.667,4.776,485.891,0,480,0z"/>
<g>
	<path style="fill:#455A64;" d="M288,426.667h-64c-17.673,0-32,14.327-32,32v42.667c0,5.891,4.776,10.667,10.667,10.667h106.667
		c5.891,0,10.667-4.776,10.667-10.667v-42.667C320,440.994,305.673,426.667,288,426.667z"/>
	<path style="fill:#455A64;" d="M138.667,426.667h-64c-17.673,0-32,14.327-32,32v42.667c0,5.891,4.776,10.667,10.667,10.667H160
		c5.891,0,10.667-4.776,10.667-10.667v-42.667C170.667,440.994,156.34,426.667,138.667,426.667z"/>
	<path style="fill:#455A64;" d="M437.333,426.667h-64c-17.673,0-32,14.327-32,32v42.667c0,5.891,4.776,10.667,10.667,10.667h106.667
		c5.891,0,10.667-4.776,10.667-10.667v-42.667C469.333,440.994,455.006,426.667,437.333,426.667z"/>
	<path style="fill:#455A64;" d="M288,320h-64c-17.673,0-32,14.327-32,32v42.667c0,5.891,4.776,10.667,10.667,10.667h106.667
		c5.891,0,10.667-4.776,10.667-10.667V352C320,334.327,305.673,320,288,320z"/>
	<path style="fill:#455A64;" d="M138.667,320h-64c-17.673,0-32,14.327-32,32v42.667c0,5.891,4.776,10.667,10.667,10.667H160
		c5.891,0,10.667-4.776,10.667-10.667V352C170.667,334.327,156.34,320,138.667,320z"/>
	<path style="fill:#455A64;" d="M437.333,320h-64c-17.673,0-32,14.327-32,32v42.667c0,5.891,4.776,10.667,10.667,10.667h106.667
		c5.891,0,10.667-4.776,10.667-10.667V352C469.333,334.327,455.006,320,437.333,320z"/>
</g>
<path style="fill:#D32F2F;" d="M501.333,0H10.667C4.776,0,0,4.776,0,10.667s4.776,10.667,10.667,10.667h490.667
	c5.891,0,10.667-4.776,10.667-10.667S507.224,0,501.333,0z"/>
<g>
</g>
<g>
</g>
<g>
</g>
<g>
</g>
<g>
</g>
<g>
</g>
<g>
</g>
<g>
</g>
<g>
</g>
<g>
</g>
<g>
</g>
<g>
</g>
<g>
</g>
<g>
</g>
<g>
</g>
</svg>
