<?xml version="1.0" encoding="iso-8859-1"?>
<!-- Generator: Adobe Illustrator 19.0.0, SVG Export Plug-In . SVG Version: 6.00 Build 0)  -->
<svg version="1.1" id="Capa_1" xmlns="http://www.w3.org/2000/svg" xmlns:xlink="http://www.w3.org/1999/xlink" x="0px" y="0px"
	 viewBox="0 0 511.82 511.82" style="enable-background:new 0 0 511.82 511.82;" xml:space="preserve">
<path style="fill:#CFD8DC;" d="M199.372,141.762l-21.333-21.333c7.542-15.983,0.698-35.054-15.285-42.595
	c-15.983-7.542-35.054-0.698-42.595,15.285c-0.646,1.369-1.194,2.781-1.64,4.228c-16.878,5.241-26.312,23.172-21.071,40.05
	c5.241,16.878,23.172,26.312,40.05,21.071c1.41-0.438,2.788-0.973,4.124-1.601l21.333,21.333c4.237,4.092,10.99,3.975,15.083-0.262
	c3.992-4.134,3.992-10.687,0-14.82l6.251-6.251c4.237,4.092,10.99,3.975,15.083-0.262c3.992-4.134,3.992-10.687,0-14.82V141.762z"/>
<path style="fill:#FFA000;" d="M316.705,205.762c-3.669-3.669-7.531-7.872-11.627-12.331
	c-21.248-23.125-50.304-54.784-91.925-54.784c-38.209,3.108-66.772,36.432-64,74.667c0.006,1.659,0.392,3.294,1.131,4.779
	l42.667,85.333c1.808,3.609,5.499,5.888,9.536,5.888c0.644,0.005,1.287-0.053,1.92-0.171l106.667-19.563
	c5.068-0.927,8.748-5.344,8.747-10.496v-65.771C319.825,210.483,318.705,207.766,316.705,205.762z"/>
<path style="fill:#CFD8DC;" d="M82.039,184.45c7.519-15.994,0.649-35.055-15.345-42.574c-15.994-7.519-35.055-0.649-42.574,15.345
	c-0.628,1.336-1.163,2.714-1.601,4.124c-16.878,5.241-26.312,23.172-21.071,40.05s23.172,26.312,40.05,21.071
	c1.41-0.438,2.788-0.973,4.125-1.601L66.956,242.2c4.093,4.237,10.845,4.355,15.083,0.262c4.237-4.093,4.355-10.845,0.262-15.083
	c-0.086-0.089-0.173-0.176-0.262-0.262l6.251-6.251c4.237,4.093,10.99,3.975,15.083-0.262c3.992-4.134,3.992-10.687,0-14.821
	L82.039,184.45z"/>
<path style="fill:#FFC107;" d="M383.82,181.314c-58.389,0-137.728,59.179-166.4,87.36l-116.032,63.275
	c-3.431,1.867-5.567,5.46-5.568,9.365c-3.44,61.312,43.474,113.804,104.786,117.244c0.627,0.035,1.254,0.065,1.881,0.09h128
	c74.667,0,181.333-100.48,181.333-170.667S447.415,181.314,383.82,181.314z"/>
<g>
	<path style="fill:#B0BEC5;" d="M298.849,159.981c-5.891,0.011-10.675-4.757-10.686-10.648c-0.005-2.84,1.123-5.565,3.134-7.571
		c13.035-13.056,7.68-28.885-2.133-53.653c-9.131-23.04-20.501-51.712,2.133-74.347c4.237-4.093,10.99-3.975,15.083,0.262
		c3.992,4.134,3.992,10.687,0,14.82c-12.096,12.096-6.869,27.413,2.624,51.392c9.344,23.595,20.992,52.971-2.624,76.608
		C304.385,158.847,301.676,159.975,298.849,159.981z"/>
	<path style="fill:#B0BEC5;" d="M383.65,159.981c-5.891,0.011-10.675-4.757-10.686-10.648c-0.005-2.84,1.123-5.565,3.134-7.571
		c13.035-13.056,7.68-28.885-2.133-53.653c-9.131-23.04-20.501-51.712,2.133-74.347c4.093-4.237,10.845-4.354,15.083-0.262
		s4.354,10.845,0.262,15.083c-0.086,0.089-0.173,0.176-0.262,0.262c-12.096,12.096-6.869,27.413,2.624,51.392
		c9.344,23.595,20.992,52.971-2.624,76.608C389.185,158.847,386.476,159.975,383.65,159.981z"/>
	<path style="fill:#B0BEC5;" d="M468.983,159.981c-5.891,0.011-10.675-4.757-10.686-10.648c-0.005-2.84,1.123-5.565,3.134-7.571
		c13.035-13.056,7.68-28.885-2.133-53.653c-9.131-23.04-20.501-51.712,2.133-74.347c4.093-4.237,10.845-4.354,15.083-0.262
		c4.237,4.093,4.354,10.845,0.262,15.083c-0.086,0.089-0.173,0.176-0.262,0.262c-12.096,12.096-6.869,27.413,2.624,51.392
		c9.344,23.595,20.992,52.971-2.624,76.608C474.518,158.847,471.809,159.975,468.983,159.981z"/>
</g>
<path style="fill:#455A64;" d="M511.457,445.25c-1.238-4.676-5.467-7.933-10.304-7.936h-448
	c-5.891,0.003-10.664,4.782-10.661,10.673c0.002,3.824,2.051,7.354,5.37,9.253c3.157,1.813,78.848,44.075,229.291,44.075
	s226.133-42.261,229.291-44.075C510.638,454.84,512.695,449.921,511.457,445.25z"/>
<path style="fill:#FFA000;" d="M428.833,277.655l-29.205-29.227c-4.165-4.164-10.917-4.164-15.083,0l-64,64
	c-4.171,4.16-4.179,10.914-0.019,15.085c2.006,2.011,4.731,3.139,7.571,3.134h34.389c5.891,0.001,10.666,4.777,10.666,10.668
	c0,1.153-0.187,2.298-0.554,3.391l-11.968,35.925c-1.857,5.591,1.17,11.628,6.76,13.485c3.314,1.101,6.956,0.51,9.752-1.581
	l45.973-34.475c23.566-17.67,28.347-51.099,10.677-74.665c-1.516-2.021-3.173-3.932-4.959-5.719V277.655z"/>
<path style="fill:#FFB300;" d="M231.372,269.762c-4.913-5.177-9.515-10.641-13.781-16.363
	c-18.937-31.505-53.012-50.769-89.771-50.752c-33.455-1.891-62.109,23.696-64,57.151c-0.129,2.281-0.129,4.568,0,6.849
	c-1.103,31.264,11.767,61.397,35.115,82.219c0.635,0.658,1.352,1.232,2.133,1.707c16.987,8.928,35.871,13.641,55.061,13.739
	c18.1,0.058,35.891-4.683,51.563-13.739c18.082-9.884,30.992-27.121,35.392-47.253C244.826,290.899,240.464,278.401,231.372,269.762
	z"/>
<g>
</g>
<g>
</g>
<g>
</g>
<g>
</g>
<g>
</g>
<g>
</g>
<g>
</g>
<g>
</g>
<g>
</g>
<g>
</g>
<g>
</g>
<g>
</g>
<g>
</g>
<g>
</g>
<g>
</g>
</svg>
