<svg id="Layer_1" enable-background="new 0 0 256 256" height="512" viewBox="0 0 256 256" width="512" xmlns="http://www.w3.org/2000/svg"><path d="m158.574 44.22h-115.57c-10.988 0-19.894 8.906-19.894 19.894v141.179c0 10.987 8.906 19.893 19.894 19.893h5.603v8.261c0 3.645 2.954 6.598 6.606 6.598 3.645 0 6.598-2.953 6.598-6.598v-8.261h78.277v8.261c0 3.645 2.961 6.598 6.604 6.598 3.646 0 6.6-2.953 6.6-6.598v-8.261h5.283c10.988 0 19.895-8.906 19.895-19.893v-141.18c-.001-10.987-8.908-19.893-19.896-19.893z" fill="#c2cbe8"/><path d="m48.607 225.186v8.261c0 3.645 2.954 6.598 6.606 6.598 3.645 0 6.598-2.953 6.598-6.598v-8.261h78.277v8.261c0 3.645 2.961 6.598 6.604 6.598 3.646 0 6.6-2.953 6.6-6.598v-8.261z" fill="#098dd6"/><path d="m158.574 44.22h-95.233c-10.989 0-19.894 8.906-19.894 19.894v.265h115.126c10.988 0 19.895 8.906 19.895 19.894v-20.16c.001-10.987-8.906-19.893-19.894-19.893z" fill="#eee"/><path d="m43.448 205.292v-140.914-.265c0-10.987 8.905-19.894 19.894-19.894h-20.338c-10.988 0-19.894 8.906-19.894 19.894v20.158 121.021c0 10.778 8.579 19.496 19.28 19.832h20.336c-10.699-.336-19.278-9.054-19.278-19.832z" fill="#95a2c4"/><path d="m147.92 154.547c0 26.032-21.098 47.131-47.13 47.131-26.033 0-47.139-21.099-47.139-47.131 0-26.034 21.106-47.14 47.139-47.14 26.032 0 47.13 21.106 47.13 47.14z" fill="#95a2c4"/><path d="m100.79 203.467c-26.979 0-48.928-21.945-48.928-48.92 0-26.979 21.949-48.929 48.928-48.929 26.974 0 48.919 21.949 48.919 48.929 0 26.974-21.945 48.92-48.919 48.92zm0-94.271c-25.006 0-45.35 20.344-45.35 45.351 0 25.001 20.344 45.342 45.35 45.342 25.001 0 45.341-20.34 45.341-45.342 0-25.006-20.34-45.351-45.341-45.351z" fill="#24202b"/><path d="m136.978 154.547c0 19.987-16.201 36.189-36.188 36.189-19.995 0-36.198-16.202-36.198-36.189 0-19.988 16.204-36.198 36.198-36.198 19.987 0 36.188 16.21 36.188 36.198z" fill="#b8dff4"/><g fill="#24202b"><path d="m100.79 192.525c-20.946 0-37.987-17.037-37.987-37.979 0-20.946 17.041-37.987 37.987-37.987 20.941 0 37.978 17.041 37.978 37.987 0 20.942-17.037 37.979-37.978 37.979zm0-72.387c-18.973 0-34.409 15.436-34.409 34.409 0 18.968 15.436 34.4 34.409 34.4 18.968 0 34.399-15.432 34.399-34.4 0-18.973-15.431-34.409-34.399-34.409z"/><path d="m178.469 96.708h-155.358c-.988 0-1.789-.801-1.789-1.789s.801-1.789 1.789-1.789h155.358c.988 0 1.789.801 1.789 1.789s-.801 1.789-1.789 1.789z"/><path d="m130.99 77.34h-10.62c-.17 0-.34-.02-.5-.07-.16.05-.33.07-.5.07-.98 0-1.79-.8-1.79-1.79 0-.98.81-1.79 1.79-1.79.17 0 .34.03.5.07.16-.04.33-.07.5-.07h10.621c.989 0 1.79.81 1.79 1.79-.001.99-.802 1.79-1.791 1.79zm-21.25 0h-10.63c-.98 0-1.79-.8-1.79-1.79 0-.98.81-1.79 1.79-1.79h10.63c.98 0 1.79.81 1.79 1.79 0 .99-.81 1.79-1.79 1.79z"/></g><path d="m163.695 159.17c0 2.184-1.795 3.979-3.979 3.979h-8.129c-2.191 0-3.979-1.796-3.979-3.979v-8.93c0-2.19 1.787-3.979 3.979-3.979h8.129c2.184 0 3.979 1.788 3.979 3.979z" fill="#098dd6"/><path d="m159.717 164.938h-8.129c-3.181 0-5.768-2.588-5.768-5.769v-8.93c0-3.18 2.587-5.768 5.768-5.768h8.129c3.181 0 5.768 2.587 5.768 5.768v8.93c-.001 3.182-2.588 5.769-5.768 5.769zm-8.129-16.887c-1.207 0-2.189.982-2.189 2.189v8.93c0 1.208.982 2.19 2.189 2.19h8.129c1.187 0 2.189-1.003 2.189-2.19v-8.93c0-1.208-.982-2.189-2.189-2.189z" fill="#24202b"/><path d="m130.117 144.195c0 8.097-6.565 14.664-14.663 14.664s-14.665-6.567-14.665-14.664c0-8.099 6.567-14.664 14.665-14.664s14.663 6.566 14.663 14.664z" fill="#eee"/><path d="m146.691 241.833c-4.628 0-8.393-3.762-8.393-8.387v-6.472h-74.698v6.472c0 4.625-3.762 8.387-8.387 8.387-4.629 0-8.395-3.762-8.395-8.387v-6.472h-3.813c-11.956 0-21.683-9.727-21.683-21.683v-141.178c0-11.956 9.727-21.683 21.683-21.683h67.383c.988 0 1.789.801 1.789 1.789s-.801 1.789-1.789 1.789h-67.384c-9.983 0-18.104 8.122-18.104 18.104v141.179c0 9.983 8.122 18.104 18.104 18.104h5.603c.988 0 1.789.801 1.789 1.789v8.261c0 2.651 2.161 4.809 4.817 4.809 2.651 0 4.809-2.157 4.809-4.809v-8.261c0-.988.801-1.789 1.789-1.789h78.277c.988 0 1.789.801 1.789 1.789v8.261c0 2.651 2.16 4.809 4.814 4.809 2.652 0 4.811-2.157 4.811-4.809v-8.261c0-.988.801-1.789 1.789-1.789h5.283c9.983 0 18.105-8.122 18.105-18.104v-90.083c0-.988.801-1.789 1.789-1.789s1.789.801 1.789 1.789v90.083c0 11.956-9.728 21.683-21.684 21.683h-3.494v6.472c.001 4.625-3.763 8.387-8.388 8.387z" fill="#24202b"/><path d="m201.082 17.184c-2.082-.677-5.572-1.227-7.764-1.227h-7.383c-2.183 0-5.213 0-6.721 0s-4.539 0-6.723 0h-7.383c-2.189 0-5.68.551-7.764 1.227l-28.021 9.108c-2.083.677-3.785 3.023-3.785 5.215v16.926c0 2.19 1.787 4.048 3.978 4.134l14.617.56c2.186.085 3.973 1.942 3.973 4.134v42.733c0 2.184 1.795 3.979 3.979 3.979h20.406 6.723 6.721 20.408c2.182 0 3.979-1.795 3.979-3.979v-42.734c0-2.191 1.789-4.049 3.971-4.134l14.617-.56c2.191-.086 3.979-1.943 3.979-4.134v-16.925c0-2.191-1.701-4.538-3.783-5.215z" fill="#fa759e"/><path d="m159.312 99.993v-42.733c0-2.191-1.787-4.049-3.978-4.134l-14.617-.56c-2.184-.086-3.971-1.943-3.971-4.134v-16.925c0-2.191 1.701-4.538 3.783-5.215l28.016-9.108c2.082-.677 5.578-1.227 7.764-1.227-1.275 0-2.658 0-3.816 0h-7.383c-2.189 0-5.68.551-7.764 1.227l-28.021 9.108c-2.083.677-3.785 3.023-3.785 5.215v16.926c0 2.19 1.787 4.048 3.978 4.134l14.617.56c2.186.085 3.973 1.942 3.973 4.134v42.733c0 2.184 1.795 3.979 3.979 3.979h11.205c-2.192-.001-3.98-1.796-3.98-3.98z" fill="#dd5e8c"/><path d="m179.215 32.495c-9.338 0-17.283-7.012-18.481-16.311-.065-.51.092-1.024.431-1.41.34-.386.829-.607 1.344-.607h33.416c.515 0 1.005.222 1.344.608.34.387.497.901.431 1.412-1.213 9.297-9.159 16.308-18.485 16.308zm-14.532-14.75c1.754 6.494 7.679 11.172 14.532 11.172 6.844 0 12.769-4.679 14.531-11.172z" fill="#24202b"/><path d="m206.344 105.761h-54.258c-3.181 0-5.768-2.587-5.768-5.768v-42.733c0-1.224-1.032-2.299-2.253-2.346l-14.616-.56c-3.143-.123-5.699-2.779-5.699-5.921v-16.926c0-2.963 2.206-6.001 5.021-6.917l28.021-9.108c2.271-.738 5.924-1.315 8.316-1.315h28.209c2.395 0 6.048.578 8.316 1.315l28.023 9.108c2.814.915 5.02 3.953 5.02 6.916v16.926c0 3.142-2.556 5.798-5.697 5.921l-14.619.56c-1.219.047-2.25 1.122-2.25 2.346v42.733c.001 3.181-2.586 5.769-5.766 5.769zm-41.235-88.016c-2.006 0-5.309.522-7.211 1.14l-28.021 9.108c-1.333.434-2.548 2.108-2.548 3.514v16.926c0 1.224 1.035 2.298 2.259 2.346l14.615.56c3.14.122 5.693 2.778 5.693 5.921v42.733c0 1.187 1.003 2.189 2.189 2.189h54.258c1.187 0 2.189-1.002 2.189-2.189v-42.733c0-3.143 2.553-5.799 5.69-5.921l14.618-.56c1.223-.048 2.258-1.123 2.258-2.346v-16.926c0-1.405-1.214-3.08-2.547-3.514l-28.023-9.108c-1.901-.618-5.203-1.14-7.211-1.14z" fill="#24202b"/><path d="m72.48 79.198c0 3.131-2.541 5.672-5.681 5.672h-16.366c-3.139 0-5.68-2.541-5.68-5.672 0-3.141 2.542-5.682 5.68-5.682h16.366c3.14.001 5.681 2.542 5.681 5.682z" fill="#7fd57a"/><path d="m66.799 86.659h-16.366c-4.119 0-7.469-3.347-7.469-7.461 0-4.119 3.351-7.471 7.469-7.471h16.366c4.119 0 7.47 3.352 7.47 7.471 0 4.114-3.351 7.461-7.47 7.461zm-16.366-11.353c-2.146 0-3.891 1.746-3.891 3.893 0 2.141 1.746 3.883 3.891 3.883h16.366c2.146 0 3.892-1.742 3.892-3.883 0-2.146-1.746-3.893-3.892-3.893z" fill="#24202b"/></svg>