<svg height="489pt" viewBox="0 0 489 489.5734" width="489pt" xmlns="http://www.w3.org/2000/svg"><path d="m308.789062 298.054688-13.59375-2.015626-92.574218-37.21875c-1.195313-.484374-2.085938-1.507812-2.394532-2.761718l-9.320312-38.054688-14.644531 75.351563 105.199219 35.472656 13.167968 15.527344 29.507813 8.246093 12.640625-37.605468zm0 0" fill="#f9cfcf"/><path d="m324.140625 356.601562c-.359375 0-.71875-.046874-1.078125-.148437l-29.511719-8.246094c-.769531-.214843-1.457031-.652343-1.972656-1.261719l-12.449219-14.683593-104.144531-35.117188c-1.898437-.640625-3.03125-2.585937-2.648437-4.554687l14.644531-75.347656c.359375-1.84375 1.953125-3.191407 3.832031-3.234376 1.882812-.113281 3.535156 1.222657 3.980469 3.046876l9.320312 38.050781 92.136719 37.042969 13.125 1.945312c.527344.078125 1.035156.257812 1.488281.535156l27.988281 16.945313c1.601563.96875 2.316407 2.921875 1.71875 4.695312l-12.640624 37.609375c-.5625 1.660156-2.113282 2.722656-3.789063 2.722656zm-27.253906-15.769531 24.667969 6.894531 10.410156-30.96875-24.558594-14.867187-12.796875-1.894531c-.3125-.046875-.617187-.128906-.90625-.246094l-92.578125-37.21875c-2.386719-.960938-4.171875-3.027344-4.785156-5.523438l-4.984375-20.351562-10.5 54.027344 101.882812 34.355468c.691407.230469 1.300781.644532 1.773438 1.203126zm0 0" fill="#3762cc"/><path d="m214.128906 96.917969c2.953125 1.570312 5.316406 3.984375 6.859375 6.863281l2.765625-11.785156-11.4375-2.339844-3.449218 14.6875 3.652343.859375zm0 0" fill="#4671c6"/><path d="m212.519531 109.199219c-.308593 0-.613281-.035157-.914062-.105469l-3.652344-.859375c-1.035156-.242187-1.929687-.886719-2.488281-1.785156-.554688-.902344-.734375-1.992188-.492188-3.023438l3.449219-14.6875c.496094-2.109375 2.574219-3.449219 4.695313-3.003906l11.441406 2.339844c1.054687.214843 1.984375.851562 2.566406 1.761719.582031.910156.773438 2.019531.523438 3.070312l-2.769532 11.785156c-.378906 1.621094-1.71875 2.835938-3.371094 3.050782-1.652343.207031-3.257812-.609376-4.046874-2.078126-.21875-.414062-.460938-.8125-.722657-1.195312l-.292969 1.492188c-.207031 1.066406-.839843 2.003906-1.753906 2.59375-.652344.425781-1.410156.644531-2.171875.644531zm6.082031-14.171875c.09375.066406.1875.136718.28125.210937l.035157-.148437zm0 0" fill="#3762cc"/><path d="m166.832031 341.871094-114.042969-22.167969 27.09375-139.394531c3.082032-15.855469 18.433594-26.210938 34.289063-23.128906l56.625 11.007812c15.855469 3.082031 26.210937 18.433594 23.128906 34.289062zm0 0" fill="#e0ebfc"/><path d="m151.839844 157.253906c-10.84375-2.109375-20.164063-7.601562-27.097656-15.167968-.023438-.019532-.046876-.035157-.070313-.054688l-3.785156 19.464844c-.59375 3.046875 1.394531 5.996094 4.441406 6.585937l37.828125 7.355469c3.046875.59375 5.996094-1.398438 6.585938-4.445312l2.742187-14.105469c-6.582031 1.527343-13.582031 1.738281-20.644531.367187zm0 0" fill="#f9cfcf"/><path d="m193.925781 202.476562-10.488281 53.957032 21.347656-5.71875c2.132813-.574219 3.398438-2.765625 2.828125-4.898438l-12.667969-47.269531c-.136718-.527344-.328124-1.027344-.496093-1.539063-.007813 1.804688-.167969 3.632813-.523438 5.46875zm0 0" fill="#e0ebfc"/><path d="m183.4375 260.429688c-1 0-1.976562-.375-2.726562-1.074219-1.007813-.941407-1.460938-2.335938-1.199219-3.6875l10.488281-53.957031c.292969-1.496094.441406-3.085938.449219-4.722657.011719-1.960937 1.441406-3.625 3.378906-3.933593 1.933594-.304688 3.808594.839843 4.421875 2.699218l.132812.402344c.152344.445312.304688.890625.429688 1.351562l12.664062 47.269532c1.140626 4.261718-1.394531 8.65625-5.65625 9.796875l-21.34375 5.71875c-.34375.09375-.691406.136719-1.039062.136719zm11.980469-44.667969-6.832031 35.148437 15.160156-4.0625zm0 0" fill="#3762cc"/><path d="m166.832031 345.871094c-.253906 0-.511719-.023438-.765625-.074219l-114.042968-22.167969c-2.167969-.417968-3.582032-2.519531-3.164063-4.691406l27.097656-139.394531c3.5-17.992188 20.992188-29.796875 38.976563-26.289063l3.351562.652344 2.457032-12.640625c.277343-1.421875 1.296874-2.582031 2.675781-3.035156 1.316406-.433594 2.757812-.15625 3.816406.730469.160156.125.324219.28125.457031.425781 6.632813 7.238281 15.246094 12.058593 24.910156 13.941406 6.328126 1.226563 12.714844 1.117187 18.980469-.335937 1.324219-.3125 2.703125.078124 3.679688 1.015624.976562.945313 1.40625 2.3125 1.148437 3.644532l-1.449218 7.453125c16.050781 4.910156 26.164062 21.296875 22.890624 38.132812l-27.09375 139.394531c-.207031 1.042969-.8125 1.957032-1.691406 2.550782-.664062.453125-1.445312.6875-2.234375.6875zm-109.351562-29.332032 106.1875 20.640626 26.332031-135.46875c2.65625-13.664063-6.300781-26.941407-19.964844-29.597657l-.492187-.097656c-2.167969-.421875-3.582031-2.519531-3.164063-4.6875l1.074219-5.511719c-5.441406.632813-10.925781.421875-16.375-.636718-8.882813-1.726563-17.015625-5.574219-23.871094-11.242188l-1.828125 9.421875c-.203125 1.042969-.808594 1.957031-1.691406 2.550781-.878906.59375-1.960938.820313-3 .609375l-7.277344-1.414062c-13.664062-2.644531-26.941406 6.300781-29.59375 19.964843zm67.191406-174.507812h.019531zm0 0" fill="#3762cc"/><path d="m407.460938 334.660156c-.503907 25.148438-21.886719 45.941406-47.769532 46.441406l-27.503906.535157-.042969 2.214843c-.078125 3.90625-3.398437 7.132813-7.417969 7.214844-4.019531.078125-7.214843-3.023437-7.136718-6.929687l.070312-3.457031c-17.265625-3.582032-30.664062-16.539063-34.335937-33.328126l-6.445313.125c1.402344-3.828124 2.230469-7.90625 2.316406-12.144531l.460938-22.953125c.03125-1.640625-.105469-3.234375-.328125-4.800781l14.832031-.285156c8.789063-9.925781 21.671875-16.367188 35.925782-16.644531l31.429687-.613282c25.878906-.5 46.449219 19.476563 45.945313 44.625zm0 0" fill="#f9cfcf"/><path d="m332.140625 364.996094c-.046875 2.320312 1.851563 4.164062 4.238281 4.117187l7.203125-.140625c2.382813-.046875 4.359375-1.964844 4.40625-4.285156.042969-2.316406-1.851562-4.160156-4.238281-4.113281l-7.203125.140625c-2.386719.042968-4.359375 1.960937-4.40625 4.28125zm0 0" fill="#3762cc"/><path d="m346.808594 321.4375c-4-7.851562-13.929688-10.8125-22.171875-6.609375-8.246094 4.199219-11.683594 13.96875-7.683594 21.820313 4 7.851562 13.925781 10.8125 22.171875 6.613281 8.242188-4.203125 11.683594-13.972657 7.683594-21.824219zm0 0" fill="#f9cfcf"/><path d="m324.574219 395.070312c-2.996094 0-5.777344-1.136718-7.855469-3.21875-2.078125-2.074218-3.1875-4.84375-3.128906-7.792968l.003906-.246094c-16.101562-4.484375-28.742188-16.761719-33.355469-32.398438l-3.28125.066407c-1.347656-.007813-2.566406-.605469-3.335937-1.675781-.765625-1.074219-.953125-2.460938-.5-3.699219 1.304687-3.5625 2-7.214844 2.074218-10.851563l.460938-22.953125c.023438-1.257812-.070312-2.617187-.292969-4.152343-.164062-1.132813.167969-2.285157.914063-3.15625.742187-.871094 1.824218-1.386719 2.96875-1.410157l13.121094-.257812c9.796874-10.34375 23.414062-16.398438 37.636718-16.675781l31.433594-.609376c13.855469-.238281 26.738281 4.8125 36.238281 14.320313 9.152344 9.152344 14.042969 21.367187 13.785157 34.378906-.542969 27.226563-23.734376 49.820313-51.691407 50.363281l-23.78125.464844c-.910156 5.261719-5.617187 9.390625-11.1875 9.5-.074219 0-.152343.003906-.226562.003906zm-41.25-51.71875c1.875 0 3.503906 1.304688 3.90625 3.144532 3.308593 15.136718 15.570312 27.015625 31.238281 30.265625 1.886719.390625 3.226562 2.070312 3.1875 3.996093l-.070312 3.460938c-.019532.960938.417968 1.605469.789062 1.976562.578125.578126 1.367188.902344 2.269531.871094 1.863281-.035156 3.460938-1.539062 3.5-3.289062l.042969-2.214844c.042969-2.148438 1.773438-3.878906 3.917969-3.921875l27.503906-.535156c23.71875-.460938 43.390625-19.539063 43.847656-42.527344.21875-10.816406-3.847656-20.960937-11.441406-28.5625-7.945313-7.949219-18.742187-12.171875-30.425781-11.976563l-31.429688.613282c-12.589844.242187-24.621094 5.816406-33.007812 15.292968-.742188.835938-1.800782 1.324219-2.917969 1.347657l-10.578125.207031c.003906.324219.003906.644531 0 .960938l-.460938 22.953124c-.050781 2.664063-.375 5.324219-.957031 7.960938l1.007813-.023438zm0 0" fill="#3762cc"/><path d="m393.875 281.246094h-.007812c12.613281 7.878906 20.832031 22.226562 20.5 38.789062-.070313 3.523438-2.910157 6.433594-6.339844 6.5l-1.304688.023438c1.535156-.027344 2.949219.402344 4.125 1.15625 0 0 .457032.207031 1.066406.84375.875.839844 1.53125 1.894531 1.886719 3.089844.660157 1.675781 1.191407 4.019531 1.265625 7.265624h.003906c0 .007813 0 .011719-.003906.019532.078125 3.371094-.335937 7.707031-1.605468 13.289062-.535157 4.054688-1.675782 7.9375-3.320313 11.5625-.007813.011719-.011719.023438-.015625.039063l-.003906-.003907c-.9375 2.058594-2.046875 4.027344-3.296875 5.898438-.523438.816406-.847657 1.222656-.847657 1.226562-7.570312 10.515626-19.890624 17.535157-33.683593 17.804688l-14.933594.289062c-.679687.015626-1.226563-.535156-1.214844-1.214843l1.207031-60.308594-32.34375.632813-12.207031.238281-15.125-6.976563c-.425781-.195312-.695312-.628906-.6875-1.097656l.101563-4.957031.035156-1.769531.242188-12.164063c.039062-1.910156.359374-3.792969.921874-5.597656.027344-.054688.898438-1.988281 2.195313-2.789063 3.058594-1.894531 10.265625-6.355468 16.851563-10.414062 9.773437-6.023438 20.867187-9.550782 32.1875-10.03125 31.015624-1.324219 44.351562 8.65625 44.351562 8.65625zm0 0" fill="#4671c6"/><path d="m357.335938 393.042969c-1.371094 0-2.703126-.550781-3.671876-1.519531-.992187-.992188-1.546874-2.371094-1.515624-3.777344l1.121093-56.148438-40.390625.789063c-.585937.011719-1.203125-.117188-1.75-.371094l-15.128906-6.972656c-1.867188-.859375-3.054688-2.746094-3.007812-4.8125l.375-18.890625c.046874-2.261719.417968-4.519532 1.105468-6.710938.050782-.160156.113282-.324218.183594-.476562.425781-.929688 1.640625-3.234375 3.714844-4.519532 3.0625-1.894531 10.277344-6.355468 16.863281-10.414062 10.457031-6.449219 22.253906-10.121094 34.117187-10.628906 31.058594-1.324219 45.40625 8.367187 46.824219 9.382812 14.25 8.992188 22.539063 24.726563 22.191407 42.140625-.046876 2.558594-1.027344 4.921875-2.597657 6.75.78125 1.007813 1.414063 2.199219 1.816407 3.476563.902343 2.351562 1.398437 5.183594 1.480468 8.421875 0 .039062 0 .078125.003906.121093.085938 4.039063-.472656 8.765626-1.664062 14.050782-.589844 4.300781-1.804688 8.496094-3.613281 12.476562-.015625.039063-.03125.074219-.046875.113282-1.003906 2.195312-2.214844 4.355468-3.59375 6.421874-.210938.328126-.589844.902344-.945313 1.359376-8.574219 11.894531-22.339843 19.164062-36.832031 19.445312l-14.9375.292969c-.035156 0-.070312 0-.101562 0zm.015624-69.523438c1.0625 0 2.078126.421875 2.832032 1.171875.769531.769532 1.191406 1.820313 1.167968 2.90625l-1.148437 57.386719 12.015625-.234375c11.996094-.230469 23.402344-6.265625 30.511719-16.144531.035156-.046875.074219-.097657.113281-.144531.0625-.082032.285156-.382813.613281-.898438 1.191407-1.78125 2.195313-3.578125 3.027344-5.394531.007813-.023438.019531-.042969.027344-.066407 1.507812-3.316406 2.511719-6.816406 2.988281-10.398437.015625-.121094.035156-.242187.066406-.363281 1.074219-4.734375 1.582032-8.875 1.503906-12.308594 0-.042969 0-.089844 0-.136719-.058593-2.25-.398437-4.277343-.988281-5.769531-.042969-.113281-.082031-.222656-.117187-.339844-.148438-.5-.429688-.960937-.816406-1.332031-.066407-.066406-.113282-.117187-.152344-.152344-.144532-.046875-.03125-.039062-.308594-.21875-.546875-.351562-1.203125-.570312-1.882812-.519531-.03125-.015625-.050782 0-.078126 0-2.175781 0-3.957031-1.738281-4-3.921875-.042968-2.210937 1.710938-4.035156 3.921876-4.078125l1.300781-.023438c1.285156-.027343 2.394531-1.207031 2.417969-2.582031.296874-14.644531-6.664063-27.847656-18.617188-35.3125-.121094-.074219-.230469-.152343-.339844-.238281-1.210937-.816406-14.109375-8.992188-41.71875-7.820312-10.5.449218-20.960937 3.714843-30.257812 9.445312-6.582032 4.054688-13.789063 8.515625-16.847656 10.40625-.09375.089844-.371094.496094-.5625.863281-.410157 1.378907-.628907 2.792969-.65625 4.203125l-.339844 17.050782 12.621094 5.820312 43.628906-.847656c.023437-.007813.050781-.007813.074218-.007813zm-58.011718-5.75.015625.007813c-.007813 0-.011719-.003906-.015625-.007813zm0 0" fill="#3762cc"/><path d="m346.808594 321.4375c-4-7.851562-13.929688-10.8125-22.171875-6.609375-8.246094 4.199219-11.683594 13.96875-7.683594 21.820313 4 7.851562 13.925781 10.8125 22.171875 6.613281 8.242188-4.203125 11.683594-13.972657 7.683594-21.824219zm0 0" fill="#f9cfcf"/><path d="m50.785156 291.796875h207.28125c15.019532 0 27.195313 12.175781 27.195313 27.195313v4.296874c0 23.96875-19.429688 43.398438-43.402344 43.398438h-183.570313c-4.144531 0-7.503906-3.355469-7.503906-7.5zm0 0" fill="#6bdddd"/><path d="m241.859375 374.636719h-183.570313c-6.34375 0-11.503906-5.160157-11.503906-11.503907v-67.390624c0-2.207032 1.792969-4 4-4h207.28125c17.199219 0 31.195313 13.992187 31.195313 31.195312v4.296875c0 26.136719-21.265625 47.402344-47.402344 47.402344zm-187.074219-74.894531v63.390624c0 1.929688 1.574219 3.503907 3.503906 3.503907h183.570313c21.726563 0 39.402344-17.675781 39.402344-39.402344v-4.296875c0-12.789062-10.40625-23.195312-23.195313-23.195312zm0 0" fill="#3762cc"/><path d="m283.039062 370.632812h-66.714843c-15.164063 0-27.457031-12.292968-27.457031-27.457031 0-15.164062 12.292968-27.453125 27.457031-27.453125h59.394531c4.042969 0 7.320312 3.277344 7.320312 7.320313zm0 0" fill="#6bdddd"/><path d="m283.039062 374.636719h-66.714843c-17.34375 0-31.457031-14.113281-31.457031-31.460938 0-17.34375 14.113281-31.453125 31.457031-31.453125h59.394531c6.242188 0 11.320312 5.078125 11.320312 11.320313v47.589843c0 2.210938-1.789062 4.003907-4 4.003907zm-66.714843-54.914063c-12.933594 0-23.457031 10.523438-23.457031 23.457032 0 12.933593 10.523437 23.457031 23.457031 23.457031h62.714843v-43.589844c0-1.832031-1.488281-3.320313-3.320312-3.320313h-59.394531zm0 0" fill="#3762cc"/><path d="m283.039062 333.1875 134.136719 8.902344 26.402344-4.207032c1.023437-.164062 2.0625-.246093 3.101563-.246093h19.277343c7.355469 0 14.039063 4.082031 17.105469 10.453125l.707031 1.464844c1.128907 2.339843 1.714844 4.90625 1.714844 7.507812v13.574219h-202.445313zm0 0" fill="#f9cfcf"/><path d="m485.484375 374.636719h-202.445313c-2.207031 0-4-1.792969-4-4v-37.449219c0-1.109375.460938-2.164062 1.269532-2.921875.804687-.757813 1.898437-1.140625 2.996094-1.070313l133.683593 8.875 25.957031-4.136718c1.230469-.195313 2.484376-.292969 3.734376-.292969h19.277343c8.863281 0 16.988281 4.992187 20.710938 12.714844l.703125 1.464843c1.378906 2.863282 2.109375 6.058594 2.109375 9.242188v13.574219c.003906 2.207031-1.789063 4-3.996094 4zm-198.445313-8h194.445313v-9.574219c0-1.988281-.457031-3.984375-1.316406-5.769531l-.707031-1.46875c-2.394532-4.972657-7.695313-8.183594-13.503907-8.183594h-19.277343c-.824219 0-1.65625.066406-2.46875.195313l-26.40625 4.207031c-.296876.042969-.597657.058593-.894532.042969l-129.871094-8.621094zm0 0" fill="#3762cc"/><path d="m4.285156 435.632812h472c4.417969 0 8-3.582031 8-8v-49c0-4.417968-3.582031-8-8-8h-472zm0 0" fill="#a4c9ff"/><path d="m8.285156 485.574219h449c2.210938 0 4-1.789063 4-4v-45.9375h-457v45.9375c0 2.207031 1.792969 4 4 4zm0 0" fill="#e0ebfc"/><path d="m26.277344 286.246094c-3.496094-1.027344-7.121094-1.550782-10.765625-1.550782h-11.226563v85.9375h54.003906v-77.1875h-7.503906zm0 0" fill="#4671c6"/><path d="m151.839844 157.253906c-26.90625-5.230468-44.480469-31.28125-39.25-58.191406l4.785156-24.625c5.230469-26.90625 31.285156-44.476562 58.191406-39.25 26.910156 5.230469 44.480469 31.285156 39.25 58.191406l-4.785156 24.625c-5.234375 26.90625-31.285156 44.480469-58.191406 39.25zm0 0" fill="#f9cfcf"/><path d="m145.03125 106.304688c-2.769531-.539063-4.578125-3.21875-4.039062-5.992188l1.625-8.359375c.539062-2.769531 3.21875-4.578125 5.992187-4.042969 2.769531.539063 4.578125 3.222656 4.042969 5.992188l-1.628906 8.359375c-.535157 2.773437-3.222657 4.582031-5.992188 4.042969zm0 0" fill="#3762cc"/><path d="m197.539062 119.472656c-2.769531-.539062-4.582031-3.21875-4.042968-5.992187l1.625-8.359375c.539062-2.769532 3.222656-4.578125 5.992187-4.042969 2.769531.539063 4.582031 3.222656 4.042969 5.992187l-1.625 8.359376c-.539062 2.773437-3.222656 4.582031-5.992188 4.042968zm0 0" fill="#3762cc"/><path d="m131.328125 90.855469c0 9.207031-7.464844 16.667969-16.667969 16.667969s-16.664062-7.460938-16.664062-16.667969c0-9.203125 7.460937-16.664063 16.664062-16.664063s16.667969 7.460938 16.667969 16.664063zm0 0" fill="#f9cfcf"/><path d="m172.011719 136.460938c-1.445313 0-2.953125-.203126-4.445313-.605469-2.929687-.78125-5.515625-2.257813-7.285156-4.148438-1.972656-2.113281-2.753906-4.625-2.148438-6.886719.285157-1.066406 1.382813-1.699218 2.449219-1.414062 1.070313.289062 1.699219 1.382812 1.414063 2.449219-.242188.902343.199218 2.042969 1.210937 3.125 1.246094 1.332031 3.210938 2.433593 5.394531 3.015625 2.183594.585937 4.433594.617187 6.175782.085937 1.417968-.433593 2.371094-1.199219 2.613281-2.097656.285156-1.070313 1.378906-1.703125 2.449219-1.414063 1.066406.285157 1.699218 1.382813 1.414062 2.449219-.605468 2.265625-2.542968 4.042969-5.308594 4.886719-1.210937.367188-2.542968.554688-3.933593.554688zm0 0" fill="#3762cc"/><path d="m243.695312 297.359375-13.59375-2.011719-91.621093-36.839844c-1.796875-.71875-3.132813-2.261718-3.589844-4.136718l-5.066406-20.691406-41.0625 11.003906 10.75 38.507812c1.066406 3.824219 3.957031 6.875 7.722656 8.144532l108.082031 36.445312c.6875.230469 1.300782.644531 1.769532 1.203125l9.101562 10.730469c2.179688 2.574218 5.085938 4.433594 8.332031 5.34375l11.863281 3.316406c7.097657 1.980469 14.5-1.941406 16.847657-8.921875l4.949219-14.726563c2.050781-6.089843-.402344-12.789062-5.898438-16.113281zm0 0" fill="#f9cfcf"/><path d="m138.371094 231.390625-55.949219 14.992187-13.703125-51.132812c-4.136719-15.449219 5.03125-31.332031 20.480469-35.46875 15.449219-4.140625 31.328125 5.027344 35.46875 20.476562zm0 0" fill="#e0ebfc"/><path d="m82.425781 250.382812c-.695312 0-1.386719-.179687-2-.535156-.917969-.53125-1.589843-1.402344-1.863281-2.429687l-13.703125-51.132813c-4.703125-17.554687 5.75-35.664062 23.304687-40.371094 17.550782-4.710937 35.664063 5.753907 40.367188 23.308594l13.703125 51.128906c.574219 2.132813-.695313 4.328126-2.828125 4.898438l-55.949219 14.992188c-.339843.09375-.6875.140624-1.03125.140624zm14.261719-87.589843c-2.128906 0-4.292969.273437-6.453125.851562-13.292969 3.5625-21.210937 17.277344-17.648437 30.570313l12.664062 47.269531 48.21875-12.921875-12.664062-47.269531c-2.980469-11.136719-13.097657-18.5-24.117188-18.5zm0 0" fill="#3762cc"/><path d="m250.121094 352.886719c-1.589844 0-3.207032-.214844-4.816406-.664063l-11.859376-3.3125c-4.035156-1.125-7.601562-3.414062-10.308593-6.609375l-9.101563-10.726562-108.082031-36.445313c-5.023437-1.699218-8.871094-5.757812-10.296875-10.863281l-10.746094-38.507813c-.289062-1.027343-.152344-2.128906.375-3.054687.53125-.929687 1.410156-1.609375 2.441406-1.882813l41.058594-11c1.042969-.28125 2.148438-.128906 3.074219.421876.925781.546874 1.589844 1.445312 1.847656 2.488281l5.066407 20.6875c.152343.628906.597656 1.140625 1.195312 1.382812l91.1875 36.660157 13.125 1.941406c.527344.078125 1.035156.261718 1.488281.535156l18.582031 11.253906c7.152344 4.328125 10.285157 12.886719 7.625 20.808594l-4.953124 14.722656c-2.496094 7.429688-9.421876 12.164063-16.902344 12.164063zm-156.421875-105.386719 9.664062 34.617188c.710938 2.550781 2.636719 4.582031 5.148438 5.429687l108.082031 36.445313c1.375.464843 2.601562 1.296874 3.546875 2.40625l9.101563 10.730468c1.667968 1.96875 3.867187 3.378906 6.359374 4.078125l11.859376 3.3125c5.050781 1.40625 10.3125-1.375 11.980468-6.347656l4.953125-14.71875c1.460938-4.351563-.261719-9.042969-4.183593-11.417969l-17.890626-10.835937-12.800781-1.894531c-.308593-.046876-.613281-.128907-.90625-.246094l-91.628906-36.835938c-2.980469-1.203125-5.21875-3.777344-5.984375-6.902344l-4.09375-16.714843zm0 0" fill="#3762cc"/><path d="m214.128906 96.917969-4.097656 21.085937c-.703125 3.605469-1.789062 7.039063-3.1875 10.277344 7.601562-.238281 14.308594-5.683594 15.820312-13.46875 1.433594-7.367188-2.230468-14.546875-8.535156-17.894531zm0 0" fill="#f9cfcf"/><path d="m161.328125 162.171875c-3.382813 0-6.8125-.324219-10.25-.992187-24.800781-4.820313-42.597656-25.941407-43.371094-50.863282-9.460937-3.382812-15.300781-13.265625-13.335937-23.40625 1.902344-9.785156 10.265625-16.5625 19.875-16.710937 7.132812-27.050781 34.238281-44.355469 62.082031-38.9375 29.03125 5.644531 48.054687 33.855469 42.414063 62.882812l-4.785157 24.621094c-4.972656 25.585937-27.480469 43.40625-52.628906 43.40625zm-49.089844-58.886719c.015625 0 .109375.015625.203125.035156 1.929688.363282 3.308594 2.074219 3.257813 4.035157-.605469 22.367187 14.914062 41.699219 36.90625 45.972656 24.695312 4.800781 48.699219-11.390625 53.5-36.085937l4.785156-24.625c4.800781-24.699219-11.386719-48.699219-36.085937-53.5-24.695313-4.792969-48.695313 11.382812-53.5 36.078124-.414063 2.125-2.445313 3.535157-4.578126 3.179688-6.8125-1.121094-13.183593 3.292969-14.5 10.0625-1.332031 6.859375 3.164063 13.523438 10.015626 14.855469-.007813-.003907-.011719-.007813-.003907-.007813zm0 0" fill="#3762cc"/><path d="m206.84375 132.28125c-1.324219 0-2.5625-.652344-3.308594-1.75-.769531-1.132812-.910156-2.578125-.363281-3.835938 1.320313-3.054687 2.308594-6.234374 2.933594-9.457031l4.097656-21.085937c.242187-1.242188 1.058594-2.300782 2.203125-2.84375 1.140625-.550782 2.480469-.515625 3.597656.074218 8.078125 4.292969 12.332032 13.207032 10.585938 22.195313-1.851563 9.527344-9.917969 16.394531-19.625 16.703125-.039063 0-.082032 0-.121094 0zm9.898438-27.851562-2.785157 14.335937c-.230469 1.191406-.503906 2.375-.816406 3.546875 2.839844-1.8125 4.910156-4.738281 5.597656-8.261719.671875-3.453125-.105469-6.890625-1.996093-9.621093zm0 0" fill="#3762cc"/><path d="m208.941406 88.964844 20.007813 4.09375c1.335937.273437 2.632812-.644532 2.894531-2.054688l7.410156-40.128906c2.449219-13.257812-5.773437-26.089844-18.363281-28.667969l-7.851563-1.605469c-4.015624-.820312-7.902343 1.941407-8.683593 6.167969l-7.890625 42.722657c-1.664063 9.003906 3.925781 17.722656 12.476562 19.472656zm0 0" fill="#4671c6"/><path d="m165.582031 75.894531-60.847656-12.449219c-2.152344-.441406-3.558594-2.636718-3.140625-4.902343l3.101562-16.796875c4.667969-25.285156 27.921876-41.7968752 51.945313-36.882813l44.519531 9.109375c6.421875 1.316406 10.617188 7.863282 9.371094 14.625l-3.269531 17.699219c-3.746094 20.289063-22.40625 33.542969-41.679688 29.597656zm0 0" fill="#4671c6"/><path d="m229.433594 97.109375c-.425782 0-.855469-.042969-1.285156-.128906l-20.007813-4.097657c-8.664063-1.769531-14.914063-9.253906-15.847656-17.964843-8.214844 5.027343-17.984375 6.851562-27.511719 4.894531l-60.847656-12.449219c-4.265625-.875-7.082032-5.152343-6.269532-9.546875l3.101563-16.792968c2.53125-13.707032 10.09375-25.417969 21.300781-32.96875 10.523438-7.097657 23.09375-9.621094 35.375-7.105469l44.523438 9.109375c3.964844.8125 7.378906 3.09375 9.707031 6.410156.722656-.035156 1.449219.070312 2.164063.214844l7.855468 1.609375c14.6875 3.003906 24.332032 17.949219 21.496094 33.308593l-7.410156 40.128907c-.320313 1.746093-1.339844 3.308593-2.789063 4.285156-1.070312.722656-2.300781 1.09375-3.554687 1.09375zm-32.324219-35.105469c.625 0 1.257813.144532 1.839844.453125 1.5625.808594 2.410156 2.542969 2.089843 4.273438l-.640624 3.488281c-1.269532 6.863281 2.921874 13.515625 9.34375 14.828125l18.4375 3.773437 7.140624-38.671874c2.046876-11.105469-4.785156-21.882813-15.238281-24.019532l-7.847656-1.609375c-.464844-.089843-.957031-.0625-1.5.109375-1.914063.585938-3.972656-.335937-4.808594-2.15625-1.109375-2.414062-3.140625-4.082031-5.566406-4.578125l-44.523437-9.113281c-10.164063-2.074219-20.574219.019531-29.300782 5.902344-9.410156 6.34375-15.769531 16.210937-17.90625 27.792968l-3.101562 16.792969c-.03125.160157.042968.261719.0625.28125l60.792968 12.425781c10.042969 2.046876 20.460938-1.222656 27.867188-8.773437.773438-.789063 1.808594-1.199219 2.859375-1.199219zm0 0" fill="#3762cc"/><path d="m117.378906 74.429688c.535156-2.75 1.300782-5.398438 2.246094-7.9375l-14.890625-3.046876c-.621094-.128906-1.167969-.414062-1.640625-.792968l-4.101562 17.460937 2.472656.582031c3.640625-4.710937 9.679687-7.296874 15.914062-6.265624zm0 0" fill="#4671c6"/><g fill="#3762cc"><path d="m101.46875 84.695312c-.304688 0-.609375-.039062-.914062-.109374l-2.472657-.578126c-1.035156-.242187-1.929687-.882812-2.488281-1.789062-.558594-.902344-.738281-1.988281-.492188-3.019531l4.101563-17.460938c.3125-1.335937 1.292969-2.417969 2.585937-2.867187 1.296876-.445313 2.734376-.199219 3.804688.660156l14.835938 3.039062c1.144531.234376 2.128906.960938 2.695312 1.980469.566406 1.023438.65625 2.242188.246094 3.339844-.894532 2.402344-1.59375 4.855469-2.066406 7.296875-.414063 2.128906-2.457032 3.535156-4.578126 3.183594-4.601562-.753906-9.234374 1.066406-12.09375 4.765625-.769531.996093-1.945312 1.558593-3.164062 1.558593zm4.53125-16.910156-1.152344 4.898438c2.871094-1.550782 6.089844-2.410156 9.398438-2.472656.0625-.234376.125-.464844.191406-.699219zm0 0"/><path d="m58.289062 374.636719h-54.003906c-2.207031 0-4-1.792969-4-4v-85.9375c0-2.210938 1.792969-4 4-4h11.226563c4.027343 0 8.03125.574219 11.898437 1.707031l23.953125 7.042969h6.925781c2.210938 0 4 1.789062 4 4v77.1875c0 2.207031-1.789062 4-4 4zm-50.003906-8h46.003906v-69.1875h-3.503906c-.378906 0-.761718-.054688-1.125-.164063l-24.507812-7.203125c-3.132813-.917969-6.375-1.382812-9.640625-1.382812h-7.226563zm0 0"/><path d="m476.285156 439.636719h-472c-2.207031 0-4-1.792969-4-4v-65c0-2.210938 1.792969-4 4-4h472c6.621094 0 12 5.378906 12 12v49c0 6.613281-5.382812 12-12 12zm-468-8h468c2.207032 0 4-1.796875 4-4v-49c0-2.207031-1.792968-4-4-4h-468zm0 0"/><path d="m457.285156 489.574219h-449c-4.410156 0-8-3.589844-8-8v-45.9375c0-2.210938 1.792969-4 4-4h457c2.210938 0 4 1.789062 4 4v45.9375c0 4.410156-3.589844 8-8 8zm-449-49.9375v41.9375h449v-41.9375zm0 0"/></g></svg>