<?xml version="1.0"?>
<svg xmlns="http://www.w3.org/2000/svg" id="Pool" enable-background="new 0 0 300 300" height="512px" viewBox="0 0 300 300" width="512px" class=""><g><g><path d="m237.5 226.184v-143.402c0-18.079-14.703-32.782-32.779-32.782-15.937 0-29.237 11.435-32.165 26.53l-9.305.002v12.5l29.41-.006v-12.5l-7.221.001c2.644-8.129 10.283-14.027 19.281-14.027 11.182 0 20.279 9.1 20.279 20.282v45.203h-100.748v-45.203c0-18.079-14.706-32.782-32.782-32.782-15.937 0-29.237 11.435-32.165 26.53l-9.305.002v12.5l29.413-.006v-12.5l-7.224.001c2.644-8.129 10.283-14.027 19.281-14.027 11.185 0 20.282 9.1 20.282 20.282v153.388c-3.163.823-6.889 1.33-11.758 1.33-11.023 0-16.199-2.588-22.198-5.591-6.476-3.235-13.819-6.909-27.796-6.909v12.5c11.023 0 16.205 2.588 22.205 5.591 6.475 3.241 13.818 6.909 27.789 6.909s21.307-3.668 27.783-6.909c6-3.003 11.176-5.591 22.198-5.591 11.029 0 16.211 2.588 22.211 5.591 6.482 3.241 13.824 6.909 27.802 6.909s21.32-3.668 27.802-6.909c6-3.003 11.182-5.591 22.211-5.591v-12.5c-4.906 0-8.981.458-12.501 1.184zm-12.5-85.699v45.386h-100.748v-45.386zm-25.012 97.015c-11.029 0-16.211-2.588-22.211-5.591-6.482-3.241-13.824-6.909-27.802-6.909-12.513 0-19.705 2.947-25.723 5.887v-32.517h100.748v32.16c-.96.461-1.891.924-2.802 1.379-5.999 3.003-11.181 5.591-22.21 5.591z" data-original="#000000" class="active-path" data-old_color="#000000" fill="#1696D1"/></g></g> </svg>
