<svg height="512pt" viewBox="0 0 512 512" width="512pt" xmlns="http://www.w3.org/2000/svg"><path d="m250.027344 50.550781c0 27.921875-22.632813 50.554688-50.554688 50.554688h-148.921875c-27.917969 0-50.550781 22.628906-50.550781 50.550781v264.070312c0 53.167969 43.105469 96.273438 96.273438 96.273438h319.453124c53.167969 0 96.273438-43.105469 96.273438-96.273438v-334.621093c0-44.792969-36.3125-81.105469-81.105469-81.105469h-130.316406c-27.921875 0-50.550781 22.632812-50.550781 50.550781zm0 0" fill="#6770e6"/><path d="m96.273438 472c-31.078126 0-56.273438-25.195312-56.273438-56.273438v-248.234374c0-14.574219 11.816406-26.386719 26.390625-26.386719h133.082031c45.621094 0 83.464844-33.910157 89.664063-77.84375 1.871093-13.25 12.910156-23.261719 26.289062-23.261719h115.46875c22.703125 0 41.105469 18.402344 41.105469 41.105469v334.621093c0 31.078126-25.195312 56.273438-56.273438 56.273438zm0 0" fill="#69ebfc"/><path d="m415.726562 498h-319.453124c-53.167969 0-96.273438-43.105469-96.273438-96.273438v14c0 53.167969 43.105469 96.273438 96.273438 96.273438h319.453124c53.167969 0 96.273438-43.105469 96.273438-96.273438v-14c0 53.167969-43.105469 96.273438-96.273438 96.273438zm0 0" fill="#5861c7"/><path d="m430.894531 0h-130.316406c-27.917969 0-50.550781 22.632812-50.550781 50.550781 0 27.921875-22.632813 50.554688-50.554688 50.554688h-148.921875c-27.917969 0-50.550781 22.628906-50.550781 50.550781v14c0-27.917969 22.632812-50.550781 50.550781-50.550781h148.921875c27.917969 0 50.554688-22.632813 50.554688-50.554688 0-27.917969 22.628906-50.550781 50.550781-50.550781h130.316406c44.792969 0 81.105469 36.3125 81.105469 81.105469v-14c0-44.792969-36.3125-81.105469-81.105469-81.105469zm0 0" fill="#8f95e6"/><path d="m187.074219 20.46875c-17.511719 0-31.761719 14.246094-31.761719 31.757812v9.320313c0 5.519531 4.480469 10 10 10 5.523438 0 10-4.480469 10-10v-9.320313c0-6.484374 5.277344-11.757812 11.761719-11.757812s11.761719 5.273438 11.761719 11.757812v42.890626h-98.859376v-42.890626c0-17.511718-14.246093-31.757812-31.757812-31.757812s-31.761719 14.246094-31.761719 31.757812v9.320313c0 5.519531 4.480469 10 10 10 5.523438 0 10-4.480469 10-10v-9.320313c0-6.484374 5.277344-11.757812 11.761719-11.757812s11.757812 5.273438 11.757812 11.757812v143.542969c0 5.519531 4.480469 10 10 10 5.523438 0 10-4.480469 10-10v-21.699219h98.859376v21.699219c0 5.519531 4.476562 10 10 10 5.519531 0 10-4.480469 10-10v-143.542969c0-17.511718-14.25-31.757812-31.761719-31.757812zm-87.097657 133.601562v-38.953124h98.859376v38.953124zm0 0" fill="#d476e2"/><path d="m68.214844 20.46875c-17.511719 0-31.757813 14.246094-31.757813 31.757812v9.320313c0 .078125.019531.148437.019531.226563.246094-17.300782 14.378907-31.304688 31.738282-31.304688 17.511718 0 31.761718 14.246094 31.761718 31.757812v-10c0-17.511718-14.246093-31.757812-31.761718-31.757812zm0 0" fill="#ea82fa"/><path d="m187.074219 20.46875c-17.511719 0-31.761719 14.246094-31.761719 31.757812v9.320313c0 .078125.023438.148437.023438.226563.246093-17.300782 14.378906-31.304688 31.738281-31.304688 17.511719 0 31.761719 14.246094 31.761719 31.757812v-10c0-17.511718-14.25-31.757812-31.761719-31.757812zm0 0" fill="#ea82fa"/><path d="m232.136719 194.355469c-6.328125-6.710938-17-6.710938-23.332031 0-6.328126 6.710937-17 6.710937-23.328126 0-6.328124-6.710938-17-6.710938-23.332031 0l-.238281.257812c-6.238281 6.613281-16.722656 6.722657-23.097656.238281l-.972656-.988281c-6.375-6.484375-16.863282-6.375-23.101563.238281l-.238281.257813c-6.328125 6.707031-17 6.707031-23.332032 0-6.324218-6.710937-17-6.710937-23.328124 0v22.320313h164.296874v-22.324219zm0 0" fill="#69ebfc"/><path d="m150.234375 203.644531c-5.414063 0-10.472656-2.121093-14.277344-5.988281l-.972656-.992188c-2.3125-2.355468-5.496094-3.613281-8.707031-3.597656-3.300782.035156-6.367188 1.378906-8.628906 3.777344l-.246094.261719c-3.816406 4.046875-8.996094 6.28125-14.566406 6.28125-5.574219 0-10.75-2.230469-14.574219-6.285157-2.296875-2.4375-5.40625-3.78125-8.753907-3.78125-3.351562 0-6.460937 1.34375-8.753906 3.78125-1.519531 1.605469-4.050781 1.679688-5.65625.164063-1.609375-1.515625-1.683594-4.046875-.164062-5.652344 3.824218-4.058593 9-6.289062 14.574218-6.289062 5.574219 0 10.75 2.230469 14.574219 6.289062 2.296875 2.433594 5.40625 3.777344 8.753907 3.777344 3.347656 0 6.457031-1.34375 8.753906-3.777344l.246094-.261719c3.765624-3.992187 8.867187-6.226562 14.359374-6.28125 5.523438-.042968 10.644532 2.066407 14.496094 5.984376l.972656.992187c2.316407 2.351563 5.347657 3.625 8.707032 3.597656 3.300781-.035156 6.363281-1.375 8.628906-3.777343l.242188-.257813c3.824218-4.050781 9-6.285156 14.574218-6.285156 5.574219 0 10.75 2.230469 14.574219 6.289062 2.296875 2.433594 5.40625 3.777344 8.753906 3.777344 3.347657 0 6.460938-1.34375 8.753907-3.777344 3.824218-4.054687 9-6.289062 14.574218-6.289062 5.578125 0 10.75 2.230469 14.578125 6.289062 1.515625 1.605469 1.441407 4.136719-.167969 5.652344-1.605468 1.519531-4.136718 1.441406-5.652343-.164063-2.296875-2.4375-5.410157-3.78125-8.753907-3.78125-3.347656 0-6.457031 1.34375-8.753906 3.777344-3.828125 4.054688-9 6.289063-14.578125 6.289063-5.574219 0-10.75-2.234375-14.574219-6.289063-2.292968-2.4375-5.40625-3.777344-8.753906-3.777344s-6.457031 1.34375-8.753906 3.777344l-.242188.257813c-3.769531 3.996093-8.871093 6.230469-14.363281 6.285156-.078125.003906-.152343.003906-.222656.003906zm0 0" fill="#ffefe4"/><path d="m181.371094 400.085938c-5.414063 0-10.476563-2.125-14.277344-5.988282l-.976562-.992187c-2.3125-2.351563-5.417969-3.648438-8.707032-3.59375-3.296875.03125-6.363281 1.375-8.628906 3.773437l-.238281.253906c-3.828125 4.058594-9.003907 6.289063-14.578125 6.289063-5.574219 0-10.75-2.230469-14.574219-6.285156-2.292969-2.4375-5.40625-3.777344-8.753906-3.777344-3.347657 0-6.457031 1.34375-8.753907 3.777344-1.515624 1.605469-4.046874 1.679687-5.652343.164062-1.609375-1.515625-1.683594-4.046875-.167969-5.652343 3.824219-4.054688 9-6.289063 14.574219-6.289063s10.75 2.230469 14.578125 6.289063c2.296875 2.433593 5.40625 3.777343 8.753906 3.777343s6.457031-1.34375 8.753906-3.777343l.238282-.253907c3.773437-4 8.875-6.230469 14.367187-6.289062 5.542969-.058594 10.644531 2.070312 14.496094 5.988281l.972656.988281c2.316406 2.355469 5.351563 3.632813 8.710937 3.597657 3.296876-.035157 6.363282-1.375 8.625-3.777344l.238282-.25c3.828125-4.058594 9.003906-6.292969 14.578125-6.292969s10.75 2.230469 14.574219 6.289063c2.296874 2.433593 5.40625 3.777343 8.753906 3.777343s6.457031-1.34375 8.753906-3.777343c3.824219-4.054688 9-6.289063 14.574219-6.289063s10.75 2.230469 14.578125 6.289063c1.515625 1.605468 1.441406 4.136718-.167969 5.652343-1.609375 1.519531-4.136719 1.441407-5.65625-.164062-2.296875-2.4375-5.40625-3.777344-8.753906-3.777344-3.347657 0-6.457031 1.34375-8.753907 3.777344-3.824218 4.054687-9 6.285156-14.574218 6.285156-5.578125 0-10.75-2.230469-14.578125-6.285156-2.296875-2.4375-5.40625-3.777344-8.753907-3.777344-3.347656 0-6.457031 1.339844-8.753906 3.777344l-.238281.25c-3.773437 4-8.875 6.234375-14.367187 6.292969-.070313 0-.144532 0-.214844 0zm0 0" fill="#ffefe4"/><path d="m392.652344 245.242188c0 28.101562-22.78125 50.886718-50.886719 50.886718-28.101563 0-50.886719-22.785156-50.886719-50.886718 0-28.105469 22.785156-50.886719 50.886719-50.886719 28.105469 0 50.886719 22.78125 50.886719 50.886719zm0 0" fill="#ff8354"/><path d="m368.660156 218.347656c-19.875-19.875-48.023437-23.941406-62.878906-9.085937s-10.789062 43.007812 9.082031 62.878906c19.875 19.871094 48.023438 23.9375 62.878907 9.082031 14.855468-14.851562 10.789062-43.003906-9.082032-62.875zm0 0" fill="#ffac8c"/><path d="m352.851562 234.152344c-19.871093-19.871094-40.945312-31.015625-47.070312-24.890625s5.019531 27.199219 24.890625 47.070312c19.871094 19.875 40.945313 31.015625 47.070313 24.890625 6.125-6.121094-5.019532-27.199218-24.890626-47.070312zm0 0" fill="#ff8354"/><path d="m423.914062 285.601562c-6.328124-6.710937-17-6.710937-23.328124 0-6.328126 6.707032-17 6.707032-23.332032 0-6.328125-6.710937-17-6.710937-23.328125 0l-.242187.253907c-6.238282 6.613281-16.722656 6.722656-23.097656.242187l-.972657-.992187c-6.375-6.484375-16.859375-6.375-23.097656.242187l-.242187.253906c-6.328126 6.710938-17 6.710938-23.328126 0-6.328124-6.710937-17-6.710937-23.332031 0v22.324219h164.296875v-22.324219zm0 0" fill="#69ebfc"/><path d="m342.015625 294.886719c-5.414063 0-10.476563-2.121094-14.28125-5.988281l-.972656-.992188c-2.3125-2.351562-5.363281-3.625-8.707031-3.59375-3.296876.035156-6.363282 1.375-8.628907 3.777344l-.238281.253906c-3.828125 4.054688-9.003906 6.289062-14.578125 6.289062s-10.75-2.234374-14.574219-6.289062c-2.296875-2.4375-5.40625-3.777344-8.753906-3.777344s-6.457031 1.339844-8.753906 3.777344c-1.515625 1.605469-4.046875 1.683594-5.652344.167969-1.609375-1.519531-1.683594-4.046875-.167969-5.65625 3.828125-4.054688 9-6.289063 14.578125-6.289063 5.574219 0 10.75 2.234375 14.574219 6.289063 2.292969 2.4375 5.40625 3.777343 8.753906 3.777343 3.347657 0 6.457031-1.339843 8.753907-3.777343l.238281-.253907c3.773437-3.996093 8.875-6.230468 14.367187-6.289062 5.507813-.074219 10.640625 2.070312 14.496094 5.988281l.972656.992188c2.316406 2.351562 5.367188 3.636719 8.707032 3.59375 3.300781-.03125 6.363281-1.375 8.628906-3.773438l.238281-.253906c3.828125-4.058594 9.003906-6.292969 14.578125-6.292969 5.570312 0 10.75 2.234375 14.570312 6.289063 2.296876 2.4375 5.40625 3.777343 8.757813 3.777343 3.347656 0 6.457031-1.34375 8.753906-3.777343 3.820313-4.054688 9-6.289063 14.570313-6.289063 5.578125 0 10.75 2.230469 14.578125 6.289063 1.515625 1.605469 1.441406 4.136719-.167969 5.652343-1.605469 1.519532-4.136719 1.441407-5.652344-.164062-2.296875-2.4375-5.40625-3.78125-8.753906-3.78125s-6.457031 1.34375-8.753906 3.777344c-3.824219 4.054687-9 6.289062-14.574219 6.289062s-10.75-2.234375-14.574219-6.289062c-2.296875-2.4375-5.40625-3.777344-8.753906-3.777344-3.351562 0-6.460938 1.34375-8.753906 3.78125l-.242188.253906c-3.769531 3.996094-8.875 6.226563-14.367187 6.285156-.074219.003907-.144531.003907-.214844.003907zm0 0" fill="#ffefe4"/></svg>