<?xml version="1.0" encoding="iso-8859-1"?>
<!-- Generator: Adobe Illustrator 19.0.0, SVG Export Plug-In . SVG Version: 6.00 Build 0)  -->
<svg version="1.1" id="Layer_1" xmlns="http://www.w3.org/2000/svg" xmlns:xlink="http://www.w3.org/1999/xlink" x="0px" y="0px"
	 viewBox="0 0 512 512" style="enable-background:new 0 0 512 512;" xml:space="preserve">
<circle style="fill:#F2CF61;" cx="256" cy="256" r="256"/>
<polygon style="fill:#C2E2F2;" points="437.5,237.376 371,147.124 166.748,208.876 105,280.124 "/>
<line style="fill:none;stroke:#263740;stroke-width:2;stroke-linecap:round;stroke-linejoin:round;stroke-miterlimit:10;" x1="309.24" y1="166.124" x2="337.76" y2="246.876"/>
<path style="fill:#263740;" d="M105,284.124c-1.46,0-2.82-0.8-3.524-2.108c-0.784-1.46-0.584-3.256,0.5-4.512l61.748-71.248
	c0.496-0.572,1.144-0.992,1.864-1.208l204.252-61.752c1.604-0.492,3.376,0.092,4.376,1.456l66.5,90.252
	c0.844,1.14,1.016,2.644,0.46,3.944c-0.56,1.304-1.764,2.216-3.168,2.396l-332.5,42.748C105.34,284.112,105.168,284.124,105,284.124
	z M169.012,212.372l-54.12,62.448l315.356-40.544l-60.796-82.508L169.012,212.372z"/>
<polygon style="fill:#E6E6E6;" points="394.752,364 504,222.312 48,280.124 48,364 "/>
<polygon style="fill:#CC584C;" points="48,307.072 48,326.18 458.084,283.012 464.46,274.7 474.02,262.236 "/>
<path style="fill:#406A80;" d="M495.844,345.592C484.2,340.808,476,329.364,476,316c0-2.212-1.788-4-4-4s-4,1.788-4,4
	c0,17.672-14.328,32-32,32s-32-14.328-32-32c0-2.212-1.788-4-4-4s-4,1.788-4,4c0,17.672-14.328,32-32,32s-32-14.328-32-32
	c0-2.212-1.788-4-4-4s-4,1.788-4,4c0,17.672-14.328,32-32,32s-32-14.328-32-32c0-2.212-1.788-4-4-4s-4,1.788-4,4
	c0,17.672-14.328,32-32,32s-32-14.328-32-32c0-2.212-1.788-4-4-4s-4,1.788-4,4c0,17.672-14.328,32-32,32s-32-14.328-32-32
	c0-2.212-1.788-4-4-4s-4,1.788-4,4c0,17.672-14.328,32-32,32s-32-14.328-32-32c0-2.212-1.788-4-4-4s-4,1.788-4,4
	c0,13.368-8.204,24.808-19.844,29.592C52.48,442.78,146.144,512,256,512S459.52,442.78,495.844,345.592z"/>
<path style="fill:#2179A6;" d="M440,352c0-2.212-1.788-4-4-4s-4,1.788-4,4c0,17.672-14.328,32-32,32s-32-14.328-32-32
	c0-2.212-1.788-4-4-4s-4,1.788-4,4c0,17.672-14.328,32-32,32s-32-14.328-32-32c0-2.212-1.788-4-4-4s-4,1.788-4,4
	c0,17.672-14.328,32-32,32s-32-14.328-32-32c0-2.212-1.788-4-4-4s-4,1.788-4,4c0,17.672-14.328,32-32,32s-32-14.328-32-32
	c0-2.212-1.788-4-4-4s-4,1.788-4,4c0,17.672-14.328,32-32,32s-32-14.328-32-32c0-2.212-1.788-4-4-4s-4,1.788-4,4
	c0,17.672-14.328,32-32,32c-2.052,0-4.056-0.212-6-0.584C78.188,460.236,161.024,512,256,512s177.812-51.764,222-128.584
	c-1.944,0.372-3.944,0.584-6,0.584C454.328,384,440,369.672,440,352z"/>
<g>
	<path style="fill:#2995CC;" d="M47.896,405.004C94.348,469.764,170.22,512,256,512c91.492,0,171.728-48.032,216.992-120.228
		C472.368,389.28,472,386.688,472,384c0-2.212-1.788-4-4-4s-4,1.788-4,4c0,17.672-14.328,32-32,32s-32-14.328-32-32
		c0-2.212-1.788-4-4-4s-4,1.788-4,4c0,17.672-14.328,32-32,32s-32-14.328-32-32c0-2.212-1.788-4-4-4s-4,1.788-4,4
		c0,17.672-14.328,32-32,32s-32-14.328-32-32c0-2.212-1.788-4-4-4s-4,1.788-4,4c0,17.672-14.328,32-32,32s-32-14.328-32-32
		c0-2.212-1.788-4-4-4s-4,1.788-4,4c0,17.672-14.328,32-32,32s-32-14.328-32-32c0-2.212-1.788-4-4-4s-4,1.788-4,4
		c0,17.672-14.328,32-32,32C62.376,416,53.764,411.736,47.896,405.004z"/>
	<path style="fill:#2995CC;" d="M44.184,399.78C41.532,395.12,40,389.744,40,384c0-2.212-1.788-4-4-4
		c-1.264,0-2.344,0.624-3.08,1.544C36.44,387.78,40.172,393.884,44.184,399.78z"/>
</g>
<g>
</g>
<g>
</g>
<g>
</g>
<g>
</g>
<g>
</g>
<g>
</g>
<g>
</g>
<g>
</g>
<g>
</g>
<g>
</g>
<g>
</g>
<g>
</g>
<g>
</g>
<g>
</g>
<g>
</g>
</svg>
