<svg height="512pt" viewBox="0 0 512 512.27031" width="512pt" xmlns="http://www.w3.org/2000/svg"><path d="m308.78125 269.453125c0 28.9375-23.460938 52.398437-52.402344 52.398437-28.9375 0-52.398437-23.460937-52.398437-52.398437 0-28.941406 23.460937-52.402344 52.398437-52.402344 28.941406 0 52.402344 23.460938 52.402344 52.402344zm0 0" fill="#6770e6"/><path d="m308.78125 269.453125c0 28.9375-23.460938 52.398437-52.402344 52.398437-28.9375 0-52.398437-23.460937-52.398437-52.398437 0-28.941406 23.460937-52.402344 52.398437-52.402344 28.941406 0 52.402344 23.460938 52.402344 52.402344zm0 0" fill="#6770e6"/><path d="m256.378906 229.050781c26.910156 0 49.070313 20.289063 52.046875 46.402344.226563-1.972656.355469-3.972656.355469-6 0-28.941406-23.460938-52.402344-52.402344-52.402344-28.9375 0-52.398437 23.460938-52.398437 52.402344 0 2.027344.128906 4.027344.351562 6 2.980469-26.113281 25.136719-46.402344 52.046875-46.402344zm0 0" fill="#8f95e6"/><path d="m449.988281 132.304688c-5.8125.003906-11.574219-2.519532-15.53125-7.378907-43.890625-53.96875-108.796875-84.925781-178.078125-84.925781s-134.1875 30.957031-178.078125 84.925781c-6.96875 8.570313-19.566406 9.867188-28.136719 2.894531-8.566406-6.964843-9.867187-19.5625-2.894531-28.132812 51.519531-63.351562 127.734375-99.6875 209.109375-99.6875s157.589844 36.335938 209.113282 99.6875c6.96875 8.570312 5.671874 21.167969-2.898438 28.132812-3.707031 3.019532-8.171875 4.484376-12.605469 4.484376zm0 0" fill="#6770e6"/><path d="m47.265625 113.6875c51.523437-63.351562 127.738281-99.6875 209.113281-99.6875s157.589844 36.335938 209.113282 99.6875c1.40625 1.730469 2.460937 3.628906 3.203124 5.609375 2.390626-6.421875 1.4375-13.90625-3.203124-19.609375-51.523438-63.351562-127.738282-99.6875-209.113282-99.6875s-157.589844 36.335938-209.113281 99.6875c-4.636719 5.703125-5.59375 13.1875-3.203125 19.609375.746094-1.980469 1.796875-3.878906 3.203125-5.609375zm0 0" fill="#8f95e6"/><path d="m396.035156 176.863281c-5.835937.003907-11.621094-2.539062-15.570312-7.429687-30.511719-37.773438-75.738282-59.433594-124.085938-59.433594-48.34375 0-93.574218 21.660156-124.082031 59.433594-6.949219 8.589844-19.539063 9.925781-28.128906 2.988281-8.589844-6.941406-9.929688-19.535156-2.988281-28.125 38.140624-47.21875 94.710937-74.296875 155.199218-74.296875 60.492188 0 117.058594 27.078125 155.203125 74.292969 6.9375 8.59375 5.601563 21.1875-2.992187 28.128906-3.699219 2.988281-8.140625 4.441406-12.554688 4.441406zm0 0" fill="#6770e6"/><path d="m101.175781 158.292969c38.144531-47.214844 94.714844-74.292969 155.203125-74.292969 60.492188 0 117.058594 27.078125 155.203125 74.292969 1.386719 1.71875 2.425781 3.597656 3.160157 5.554687 2.382812-6.402344 1.441406-13.855468-3.160157-19.554687-38.144531-47.214844-94.710937-74.292969-155.203125-74.292969-60.488281 0-117.058594 27.078125-155.203125 74.292969-4.601562 5.699219-5.539062 13.152343-3.160156 19.554687.734375-1.957031 1.777344-3.835937 3.160156-5.554687zm0 0" fill="#8f95e6"/><path d="m342.117188 221.390625c-5.890626 0-11.722657-2.585937-15.671876-7.554687-17.097656-21.5-42.632812-33.835938-70.066406-33.835938s-52.96875 12.335938-70.066406 33.835938c-6.871094 8.644531-19.453125 10.085937-28.101562 3.210937-8.644532-6.875-10.082032-19.457031-3.210938-28.101563 24.730469-31.105468 61.679688-48.945312 101.378906-48.945312 39.699219 0 76.648438 17.839844 101.378906 48.945312 6.875 8.644532 5.4375 21.226563-3.210937 28.101563-3.675781 2.921875-8.070313 4.34375-12.429687 4.34375zm0 0" fill="#6770e6"/><path d="m155 202.945312c24.730469-31.105468 61.679688-48.945312 101.378906-48.945312 39.699219 0 76.648438 17.839844 101.378906 48.945312 1.335938 1.683594 2.351563 3.515626 3.066407 5.421876 2.355469-6.347657 1.457031-13.734376-3.066407-19.421876-24.730468-31.105468-61.679687-48.945312-101.378906-48.945312-39.699218 0-76.648437 17.839844-101.378906 48.945312-4.519531 5.6875-5.421875 13.074219-3.066406 19.421876.71875-1.910157 1.730468-3.742188 3.066406-5.421876zm0 0" fill="#8f95e6"/><path d="m512.378906 321.699219v139.960937c0 27.800782-22.539062 50.339844-50.339844 50.339844h-411.320312c-27.800781 0-50.339844-22.539062-50.339844-50.339844v-139.960937c0-27.800781 22.539063-50.339844 50.339844-50.339844h411.320312c27.800782 0 50.339844 22.539063 50.339844 50.339844zm0 0" fill="#69ebfc"/><path d="m462.039062 498h-411.320312c-27.800781 0-50.339844-22.539062-50.339844-50.339844v14c0 27.800782 22.539063 50.339844 50.339844 50.339844h411.320312c27.800782 0 50.339844-22.539062 50.339844-50.339844v-14c0 27.800782-22.539062 50.339844-50.339844 50.339844zm0 0" fill="#5fd4e3"/><path d="m306.71875 271.359375h-50.339844v.445313l-205.238281-.714844c-27.800781-.097656-50.417969 22.363281-50.515625 50.164062l-.488281 139.957032c-.0976565 27.800781 22.363281 50.417968 50.164062 50.515624l155.320313.542969c27.796875.097657 50.417968-22.363281 50.515625-50.164062l.507812-145.578125c2.585938-25.371094 24.019531-45.167969 50.074219-45.167969zm0 0" fill="#d476e2"/><g fill="#ffefe4"><path d="m47.597656 331.769531c5.378906 0 10.082032 3.617188 11.460938 8.8125l16.835937 63.386719 2.761719 13.300781h1.382812l3.625-13.300781 14.472657-45.238281c1.976562-6.183594 7.726562-10.378907 14.21875-10.378907 6.476562 0 12.214843 4.175782 14.207031 10.339844l14.621094 45.277344 3.457031 13.128906h1.378906l2.59375-13.128906 15.726563-63.207031c1.3125-5.285157 6.058594-8.992188 11.503906-8.992188h.019531c7.785157 0 13.457031 7.371094 11.460938 14.894531l-25.90625 97.621094c-1.746094 6.582032-7.703125 11.160156-14.507813 11.160156-6.503906 0-12.269531-4.1875-14.277344-10.375l-15.980468-49.21875-3.625-13.648437h-1.382813l-3.625 13.648437-15.976562 49.21875c-2.007813 6.1875-7.773438 10.375-14.277344 10.375h-.125c-6.75 0-12.667969-4.503906-14.46875-11.007812l-27.003906-97.652344c-2.085938-7.550781 3.59375-15.015625 11.429687-15.015625zm0 0"/><path d="m212.875 359.40625c-1.957031 0-3.828125-.371094-5.613281-1.121094-1.789063-.75-3.34375-1.789062-4.664063-3.109375-1.328125-1.324219-2.363281-2.855469-3.109375-4.578125-.75-1.726562-1.125-3.628906-1.125-5.703125s.375-3.972656 1.125-5.703125c.746094-1.726562 1.78125-3.25 3.109375-4.578125 1.320313-1.320312 2.875-2.355469 4.664063-3.109375 1.785156-.746094 3.652343-1.121094 5.613281-1.121094 4.03125 0 7.484375 1.410157 10.363281 4.230469 2.878907 2.824219 4.320313 6.25 4.320313 10.28125s-1.441406 7.457031-4.320313 10.277344c-2.875 2.820313-6.332031 4.234375-10.363281 4.234375zm-11.226562 84.726562v-62.011718c0-6.246094 5.066406-11.3125 11.3125-11.3125 6.25 0 11.316406 5.066406 11.316406 11.3125v62.011718c0 6.25-5.066406 11.316407-11.316406 11.316407-6.246094 0-11.3125-5.066407-11.3125-11.316407zm0 0"/><path d="m332.414062 331.769531h56.753907c6.109375 0 11.054687 4.949219 11.054687 11.050781 0 6.109376-4.949218 11.054688-11.054687 11.054688h-44.046875v30.054688h38.519531c6.105469 0 11.054687 4.949218 11.054687 11.054687v.003906c0 6.105469-4.949218 11.054688-11.054687 11.054688h-38.519531v37.742187c0 6.441406-5.222656 11.660156-11.660156 11.660156-6.441407 0-11.660157-5.21875-11.660157-11.660156v-101.40625c0-5.859375 4.753907-10.609375 10.613281-10.609375zm0 0"/><path d="m426.308594 359.40625c-1.960938 0-3.832032-.371094-5.613282-1.121094-1.789062-.75-3.34375-1.789062-4.664062-3.109375-1.328125-1.324219-2.363281-2.855469-3.113281-4.578125-.75-1.726562-1.121094-3.628906-1.121094-5.703125s.371094-3.972656 1.121094-5.703125c.75-1.726562 1.785156-3.25 3.113281-4.578125 1.320312-1.320312 2.875-2.355469 4.664062-3.109375 1.78125-.746094 3.652344-1.121094 5.613282-1.121094 4.027344 0 7.484375 1.410157 10.363281 4.230469 2.878906 2.824219 4.316406 6.25 4.316406 10.28125s-1.4375 7.457031-4.316406 10.277344-6.335937 4.234375-10.363281 4.234375zm-11.230469 84.726562v-62.011718c0-6.246094 5.066406-11.3125 11.316406-11.3125 6.246094 0 11.3125 5.066406 11.3125 11.3125v62.011718c0 6.25-5.066406 11.316407-11.3125 11.316407-6.25 0-11.316406-5.066407-11.316406-11.316407zm0 0"/></g><path d="m462.039062 271.359375h-411.320312c-27.800781 0-50.339844 22.539063-50.339844 50.339844v14c0-27.800781 22.539063-50.339844 50.339844-50.339844h411.320312c27.800782 0 50.339844 22.539063 50.339844 50.339844v-14c0-27.800781-22.539062-50.339844-50.339844-50.339844zm0 0" fill="#a1f1fc"/><path d="m128.558594 271.359375h-77.839844c-14.683594 0-27.898438 6.292969-37.097656 16.324219-8.035156 8.886718-12.953125 20.652344-12.996094 33.570312l-.035156 9.949219c2.277344-25.691406 23.847656-45.84375 50.132812-45.84375h221.183594c9.042969-8.664063 21.304688-14 34.816406-14zm0 0" fill="#ea82fa"/><path d="m128.097656 512h82.898438c11.578125-1.191406 21.996094-6.308594 29.898437-14h-190.175781c-27.800781 0-50.339844-22.539062-50.339844-50.339844v14c0 12.917969 4.875 24.703125 12.878906 33.613282 9.167969 10.066406 22.359376 16.402343 37.042969 16.453124zm0 0" fill="#b665c2"/></svg>